<svg width="199" height="183" viewBox="0 0 199 183" fill="none" xmlns="http://www.w3.org/2000/svg">
<g id="logo color" clip-path="url(#clip0_1267_2550)">
<path id="Vector" d="M107.852 29.9448C108.934 20.8672 111.463 12.6791 115.716 5.10183C118.824 -0.428357 125.884 -1.42508 131.585 2.57252C135.935 5.62699 137.477 14.0402 134.413 18.1449C133.17 19.8061 131.413 21.178 129.42 20.2348C126.667 18.9273 124.684 16.4945 124.267 13.3757C123.924 10.8142 124.202 8.17773 124.202 4.80174C117.259 8.61715 117.131 15.4334 114.613 20.7921C114.259 21.5424 114.516 22.5927 114.141 23.3322C111.645 28.3051 112.802 31.7668 117.152 35.5393C124.899 42.2377 128.274 51.5511 129.902 61.9042C138.624 58.1852 147.41 54.477 156.539 51.8191C164.799 49.4184 173.06 46.5354 181.932 49.2255C189.711 51.5833 195.207 56.792 197.607 64.0798C200.232 72.0536 199.257 80.1881 193.053 86.8115C189.336 90.7876 185.478 94.3887 179.918 95.8784C177.764 96.4571 176.414 96.3928 175.557 94.528C174.507 92.2452 176.875 91.8379 178.032 91.3128C182.446 89.3193 186.218 86.7043 189.486 83.0175C194.682 77.1444 195.089 70.4245 192.25 63.9941C189.282 57.2635 183.164 53.9304 175.642 53.5339C167.092 53.0837 159.217 55.8917 151.578 59.0319C145.642 61.4755 138.795 61.154 133.492 64.4656C127.781 68.0238 123.945 66.234 118.438 63.8226C105.795 58.2817 91.7481 56.8777 80.1122 64.9265C73.5549 69.46 69.1941 68.9241 63.5368 66.0411C52.6081 60.4895 41.1436 56.6526 29.1648 54.0483C20.5825 52.1835 11.8716 55.0129 6.99655 62.29C3.57863 67.3915 2.45361 77.3694 9.06444 83.4783C11.0145 85.2789 11.4752 88.0761 10.4038 91.2378C5.2608 88.2476 1.96074 83.9928 0.910726 78.3126C-0.439298 71.0461 -1.12503 63.7583 4.28579 57.4779C10.7359 49.9971 18.4289 47.3285 28.4469 48.8289C41.2507 50.7473 52.8974 55.5059 64.5226 60.6502C66.6976 61.6148 67.9941 62.4615 68.8834 58.496C71.1227 48.5181 74.4442 38.7653 84.1837 33.1065C85.4908 32.3455 85.9623 30.9415 85.6837 29.4089C84.0765 20.8029 82.5443 12.1539 75.0549 4.76959C75.2156 10.7928 75.2049 15.8621 70.3834 19.1631C67.9191 20.8564 64.0833 19.8704 63.269 17.0732C60.5904 7.73832 65.1655 0.91132 74.7871 0.0324916C79.555 -0.396205 81.43 3.50494 83.5408 6.5594C87.4194 12.1968 88.4694 18.9702 89.8838 25.4757C90.4838 28.2515 91.7802 29.7626 93.9981 28.7873C98.9053 26.6117 103.105 29.2375 107.863 29.9555L107.852 29.9448Z" fill="#040404"/>
<path id="Vector_2" d="M57.2798 109.157C61.9728 112.029 66.6014 113.755 68.9693 118.535C72.923 126.487 69.7943 135.168 61.4263 138.159C57.6334 139.52 53.7655 140.431 49.6404 140.345C41.101 140.184 32.5508 140.173 24.0221 140.345C20.8184 140.409 19.3184 139.905 19.372 136.09C19.5863 118.438 19.522 100.787 19.4041 83.1353C19.3827 80.1558 20.1756 79.1162 23.2613 79.1805C32.6901 79.3627 42.1295 79.0305 51.5583 79.2984C63.4406 79.6307 71.3265 90.5839 67.5979 101.001C65.9585 105.588 61.9728 107.249 57.2798 109.146V109.157Z" fill="#EFB322"/>
<path id="Vector_3" d="M81.4516 109.864C81.4516 100.947 81.5694 92.0303 81.3873 83.1241C81.323 80.1125 82.2123 79.1372 85.2659 79.1908C95.584 79.3623 105.913 79.373 116.231 79.1908C119.456 79.1265 119.992 80.3912 120.013 83.242C120.034 86.125 119.027 86.9074 116.295 86.8109C111.495 86.6287 106.684 86.8752 101.884 86.7144C99.3662 86.6394 98.6269 87.4754 98.4769 90.0368C97.6305 104.955 97.5554 104.87 112.684 105.041C115.116 105.073 118.974 103.005 118.984 108.61C118.995 112.618 117.967 113.98 113.938 113.604C110.059 113.24 106.106 113.658 102.206 113.487C99.5269 113.369 98.5733 114.119 98.4662 117.013C97.8876 131.738 97.7912 131.728 112.363 131.728C113.606 131.728 114.87 131.846 116.102 131.706C119.456 131.32 121.127 131.963 121.17 136.122C121.213 140.602 118.942 140.366 115.888 140.334C106.106 140.237 96.3019 140.044 86.5303 140.409C82.1266 140.569 81.2266 139.048 81.3659 135.007C81.6552 126.637 81.4516 118.245 81.4516 109.864Z" fill="#EFB322"/>
<path id="Vector_4" d="M133.824 109.382C133.824 100.647 133.931 91.902 133.759 83.1673C133.706 80.22 134.467 79.1268 137.595 79.1911C147.913 79.3733 158.242 79.3733 168.56 79.1911C171.71 79.1376 172.396 80.2843 172.385 83.1995C172.385 86.0181 171.507 86.9291 168.71 86.8112C163.91 86.6183 159.099 86.8648 154.299 86.7148C151.835 86.6398 150.999 87.3685 150.849 89.9836C149.96 104.945 149.885 104.859 165.014 105.042C167.414 105.074 171.335 102.92 171.357 108.557C171.367 112.479 170.457 114.269 166.374 113.53C165.86 113.433 165.314 113.519 164.778 113.519C149.617 113.519 149.681 113.519 150.86 128.738C151.042 131.085 151.77 131.803 154.021 131.76C159.356 131.653 164.703 131.932 170.028 131.664C173.735 131.481 173.349 133.7 173.403 136.069C173.457 138.598 173.478 140.441 169.91 140.366C159.056 140.152 148.203 140.195 137.349 140.345C134.467 140.388 133.738 139.38 133.781 136.647C133.92 127.559 133.834 118.46 133.834 109.371L133.824 109.382Z" fill="#EFB322"/>
<path id="Vector_5" d="M70.5011 141.342C72.4618 141.813 73.7047 143.335 74.5083 144.718C78.4834 151.513 85.0835 153.742 92.08 155.253C103.93 157.814 114.227 154.492 122.916 146.261C124.438 144.814 125.798 144.975 126.806 145.79C128.37 147.054 128.434 149.166 127.084 150.634C123.527 154.481 119.413 157.772 114.441 159.486C105.955 162.423 103.148 165.831 103.823 174.33C104.091 177.674 104.337 182.154 100.127 182.904C95.3694 183.74 95.6908 178.638 94.2872 175.766C93.7729 174.705 93.4408 173.515 93.2265 172.347C92.0479 165.906 90.5264 160.537 82.512 158.65C76.9191 157.332 72.6761 152.37 69.5261 147.129C68.1332 144.804 68.0582 142.939 70.4904 141.342H70.5011Z" fill="#040404"/>
<path id="Vector_6" d="M40.3291 112.286C46.1042 112.694 50.1436 114.012 51.9543 118.792C53.3472 122.479 52.9936 126.005 50.3579 129.134C47.1221 132.982 42.7184 132.95 38.2934 132.746C36.0862 132.639 36.6112 130.838 36.5898 129.541C36.5255 125.458 36.8255 121.364 36.4933 117.302C36.1612 113.315 37.4041 111.59 40.3291 112.276V112.286Z" fill="#CECDBB"/>
<path id="Vector_7" d="M36.5687 95.8886C36.5687 95.5349 36.4402 95.1062 36.5794 94.8276C37.9402 92.234 33.2901 87.1432 39.8688 86.7466C47.2939 86.2965 50.2083 87.9041 51.419 94.9991C51.9333 97.9571 51.1083 101.194 48.4725 103.016C45.3332 105.181 41.551 105.288 37.833 104.795C36.3652 104.602 36.6116 103.284 36.5902 102.276C36.5473 100.143 36.5794 98.0107 36.5687 95.8779V95.8886Z" fill="#CECDBB"/>
</g>
<defs>
<clipPath id="clip0_1267_2550">
<rect width="199" height="183" fill="white"/>
</clipPath>
</defs>
</svg>
