<svg width="129" height="129" viewBox="0 0 129 129" fill="none" xmlns="http://www.w3.org/2000/svg">
<g id="icono instagram">
<path id="Vector" fill-rule="evenodd" clip-rule="evenodd" d="M37.9081 0.387C44.7881 0.0716535 46.9811 0 64.5 0C82.0223 0 84.2118 0.0752304 91.0881 0.387C97.9573 0.698769 102.648 1.79169 106.751 3.38625C111.054 5.00643 114.952 7.54498 118.175 10.8253C121.455 14.0469 123.994 17.9454 125.614 22.2489C127.208 26.3518 128.298 31.0424 128.613 37.9081C128.928 44.7881 129 46.9811 129 64.5C129 82.0188 128.925 84.2118 128.613 91.0922C128.301 97.9573 127.208 102.648 125.614 106.751C123.965 110.99 121.758 114.591 118.175 118.175C114.953 121.455 111.054 123.994 106.751 125.614C102.648 127.208 97.9573 128.298 91.0922 128.613C84.2118 128.928 82.0188 129 64.5 129C46.9811 129 44.7881 128.925 37.9081 128.613C31.0424 128.301 26.3518 127.208 22.2489 125.614C18.0098 123.965 14.4086 121.758 10.8253 118.175C7.54439 114.953 5.00567 111.054 3.38625 106.751C1.79169 102.648 0.702346 97.9573 0.387 91.0922C0.0716535 84.2118 0 82.0223 0 64.5C0 46.9775 0.0752304 44.7881 0.387 37.9117C0.698769 31.0424 1.79169 26.3518 3.38625 22.2489C5.00643 17.9457 7.54498 14.0474 10.8253 10.8253C14.0469 7.54439 17.9454 5.00567 22.2489 3.38625C26.3518 1.79169 31.0424 0.702346 37.9081 0.387ZM90.565 11.997C83.7638 11.6888 81.7215 11.6207 64.5 11.6207C47.2785 11.6207 45.236 11.6888 38.4348 11.997C32.1461 12.2837 28.7312 13.3336 26.4593 14.2187C23.4493 15.3868 21.2993 16.7843 19.0418 19.0418C16.7879 21.2993 15.3868 23.4493 14.2187 26.4593C13.3336 28.7312 12.2837 32.1461 11.997 38.4348C11.6888 45.236 11.6207 47.2785 11.6207 64.5C11.6207 81.7215 11.6888 83.7638 11.997 90.565C12.2837 96.8538 13.3336 100.269 14.2187 102.541C15.252 105.343 16.9001 107.877 19.0418 109.958C21.1228 112.1 23.6575 113.748 26.4593 114.781C28.7312 115.667 32.1461 116.716 38.4348 117.003C45.236 117.311 47.2749 117.379 64.5 117.379C81.725 117.379 83.7638 117.311 90.565 117.003C96.8538 116.716 100.269 115.667 102.541 114.781C105.551 113.613 107.701 112.216 109.958 109.958C112.1 107.877 113.748 105.343 114.781 102.541C115.667 100.269 116.716 96.8538 117.003 90.565C117.311 83.7638 117.379 81.7215 117.379 64.5C117.379 47.2785 117.311 45.236 117.003 38.4348C116.716 32.1461 115.667 28.7312 114.781 26.4593C113.613 23.4493 112.216 21.2993 109.958 19.0418C107.701 16.7879 105.551 15.3868 102.541 14.2187C100.269 13.3336 96.8538 12.2837 90.565 11.997ZM56.2645 84.383C58.8756 85.4648 61.6737 86.0213 64.5 86.0213C70.2083 86.0213 75.682 83.7538 79.7179 79.7179C83.7544 75.682 86.0219 70.2077 86.0219 64.5C86.0219 58.7923 83.7544 53.318 79.7179 49.282C75.682 45.2459 70.2083 42.9785 64.5 42.9785C61.6737 42.9785 58.8756 43.5352 56.2645 44.6167C53.6529 45.6982 51.2806 47.2835 49.2822 49.282C47.2837 51.2804 45.6984 53.6529 44.6169 56.2639C43.5353 58.875 42.9787 61.6737 42.9787 64.5C42.9787 67.3263 43.5353 70.125 44.6169 72.7361C45.6984 75.3471 47.2837 77.7196 49.2822 79.7179C51.2806 81.7162 53.6529 83.3018 56.2645 84.383ZM41.0575 41.0572C47.2749 34.8399 55.7075 31.3469 64.5 31.3469C73.2931 31.3469 81.7256 34.8399 87.9428 41.0572C94.16 47.2746 97.653 55.7075 97.653 64.5C97.653 73.2925 94.16 81.725 87.9428 87.9428C81.7256 94.16 73.2931 97.653 64.5 97.653C55.7075 97.653 47.2749 94.16 41.0575 87.9428C34.8401 81.725 31.3472 73.2925 31.3472 64.5C31.3472 55.7075 34.8401 47.2746 41.0575 41.0572ZM105.004 36.2864C106.474 34.8167 107.299 32.8234 107.299 30.745C107.299 28.6665 106.474 26.6732 105.004 25.2036C103.534 23.7339 101.541 22.9082 99.4625 22.9082C97.3845 22.9082 95.3908 23.7339 93.9214 25.2036C92.4514 26.6732 91.6258 28.6665 91.6258 30.745C91.6258 32.8234 92.4514 34.8167 93.9214 36.2864C95.3908 37.7561 97.3845 38.5817 99.4625 38.5817C101.541 38.5817 103.534 37.7561 105.004 36.2864Z" fill="black"/>
</g>
</svg>
