<svg width="129" height="129" viewBox="0 0 129 129" fill="none" xmlns="http://www.w3.org/2000/svg">
<g id="Group">
<path id="Vector" d="M81.0002 129H54.0002V85.5H48.3002C44.8202 85.5 42.0002 82.68 42.0002 79.2V67.8C42.0002 64.32 44.8202 61.5 48.3002 61.5H54.0002V46.5C54.0002 34.08 64.0802 24 76.5002 24H92.7002C96.1802 24 99.0002 26.8199 99.0002 30.2999V44.7001C99.0002 48.1801 96.1802 51 92.7002 51H81.0002V61.5H92.2802C94.2002 61.5 95.9402 62.34 97.1402 63.78C98.3402 65.22 98.8202 67.14 98.4602 69L96.1802 80.4C95.5802 83.34 93.0002 85.44 90.0002 85.44H81.0002V129ZM63.0002 120H72.0002V76.5H87.8402L89.0402 70.5H72.0602V48.2999C72.0602 44.8199 74.8802 42 78.3602 42H90.0602V33H76.5002C69.0602 33 63.0002 39.06 63.0002 46.5V70.5H51.0002V76.5H63.0002V120Z" fill="black"/>
<path id="Vector_2" d="M82.5 129H46.5C13.92 129 0 115.08 0 82.5V46.5C0 13.92 13.92 0 46.5 0H82.5C115.08 0 129 13.92 129 46.5V82.5C129 115.08 115.08 129 82.5 129ZM46.5 9C18.84 9 9 18.84 9 46.5V82.5C9 110.16 18.84 120 46.5 120H82.5C110.16 120 120 110.16 120 82.5V46.5C120 18.84 110.16 9 82.5 9H46.5Z" fill="black"/>
</g>
</svg>
